<svg xmlns="http://www.w3.org/2000/svg" viewBox="0 0 36.46 29.73"><defs><style>.cls-1{fill:#fff;}</style></defs><title>Fichier 1</title><g id="Calque_2" data-name="Calque 2"><g id="Calque_1-2" data-name="Calque 1"><path class="cls-1" d="M0,14.95a1.9,1.9,0,0,1,.66-.57c.86-.6,1.72-1.19,2.6-1.77a1,1,0,0,0,.45-.69A14.87,14.87,0,0,1,16.3.14,14.84,14.84,0,0,1,32.71,11.5a.77.77,0,0,1,0,.09,1.55,1.55,0,0,0,.82,1.23c.89.54,1.74,1.17,2.6,1.76l.32.25c0,.26-.21.29-.34.38-.79.54-1.57,1.1-2.4,1.59a2,2,0,0,0-1,1.48,11,11,0,0,1-1.13,3.19,14.46,14.46,0,0,1-10.52,8,14.79,14.79,0,0,1-17.18-11,3.26,3.26,0,0,0-.31-1.07,3.28,3.28,0,0,0-.91-.66ZM18.28,25A10.17,10.17,0,1,0,8.11,14.89,10.1,10.1,0,0,0,18.28,25Z"/><path class="cls-1" d="M18.3,7.89a7,7,0,0,1,4.34,12.54,5.27,5.27,0,0,1-.65.44.18.18,0,0,1-.27-.11c-.08-.22-.12-.45-.21-.66a3.5,3.5,0,0,0-6.51,0,.51.51,0,0,1,0,.08c-.14.22,0,.6-.29.69s-.52-.2-.73-.38a6.78,6.78,0,0,1-2.49-7.23A6.75,6.75,0,0,1,16.92,8a5,5,0,0,1,.69-.11C17.84,7.88,18.07,7.89,18.3,7.89Zm1.84,7a1.89,1.89,0,1,0-3.77.08,1.89,1.89,0,0,0,3.77-.08Z"/></g></g></svg>