<svg xmlns="http://www.w3.org/2000/svg" viewBox="0 0 421.37 107.44"><defs><style>.cls-1{fill:#4e8995;}.cls-2{fill:#343e46;}</style></defs><title>Fichier 13</title><g id="Calque_2" data-name="Calque 2"><g id="Calque_1-2" data-name="Calque 1"><path class="cls-1" d="M70.57,0c.14.08.27.21.42.22A50.23,50.23,0,0,1,81.08,2.06a51.93,51.93,0,0,1,10.07,4,48.31,48.31,0,0,1,9.56,6.44c1.56,1.37,3.1,2.76,4.55,4.24a51.63,51.63,0,0,1,7.53,10,50.72,50.72,0,0,1,4.71,10.62c.65,2.12,1.15,4.3,1.61,6.47a2.06,2.06,0,0,0,1,1.39l12.3,8.2.33.24-4.35,2.92c-2.75,1.83-5.49,3.68-8.26,5.47A2.48,2.48,0,0,0,119,63.94a51.83,51.83,0,0,1-5.67,15.69,55,55,0,0,1-6.12,8.84,53.87,53.87,0,0,1-30.61,18,51.86,51.86,0,0,1-12.92.93A53.75,53.75,0,0,1,33.39,96.09a55.09,55.09,0,0,1-9-8.89,54,54,0,0,1-7.12-11.65,48.12,48.12,0,0,1-3.7-12,1.9,1.9,0,0,0-.9-1.37Q6.55,58.15.45,54.05L0,53.72c.29-.23.52-.43.77-.59,4-2.65,7.92-5.31,11.91-7.92a1.87,1.87,0,0,0,.89-1.35,52.61,52.61,0,0,1,3.28-11,49,49,0,0,1,6.63-11.47,65.12,65.12,0,0,1,5.09-5.87A52.07,52.07,0,0,1,39.73,7.07,54.68,54.68,0,0,1,57.26.75c1.46-.27,3-.35,4.44-.53a1.87,1.87,0,0,0,.5-.22ZM103,53.7A36.74,36.74,0,1,0,65.49,90.46,36.73,36.73,0,0,0,103,53.7Z"/><path class="cls-2" d="M184.73,98.89V55.5h.81c6.53,0,13.06-.06,19.59,0a21.26,21.26,0,0,1,5.66.85c5,1.5,7.88,5.2,9.41,10a40.46,40.46,0,0,1,1.36,14.46,31.78,31.78,0,0,1-1.47,8.6,16.24,16.24,0,0,1-3.28,5.71,10.51,10.51,0,0,1-6.61,3.37,37.12,37.12,0,0,1-4.72.3c-6.64,0-13.27,0-19.91,0Zm10.57-34v24.6c3.27,0,6.48,0,9.69,0a4.25,4.25,0,0,0,1.08-.22c2.48-.69,3.62-2.55,4.22-4.87a28.67,28.67,0,0,0,.54-11.05,19.05,19.05,0,0,0-1.17-4.48,5.92,5.92,0,0,0-6-4c-2.24,0-4.48,0-6.72,0Z"/><path class="cls-2" d="M143,55.65h9.48c3.82,0,7.64,0,11.45,0A16.3,16.3,0,0,1,170.8,57a10.25,10.25,0,0,1,5.88,7.9,25.18,25.18,0,0,1-.62,12,7.83,7.83,0,0,1-5.35,5.75l8.41,16.16h-2c-2.76,0-5.53,0-8.29,0a1.33,1.33,0,0,1-1.45-1c-2-4.5-4.14-9-6.2-13.47a1.36,1.36,0,0,0-1.31-1c-1.86-.11-3.72-.35-5.58-.54-.2,0-.41,0-.71,0V98.83H143Zm10.56,20.21c.28,0,.51,0,.74,0h8a3.66,3.66,0,0,0,4-3.47,19.86,19.86,0,0,0,0-4.08c-.21-2.48-1.7-3.77-4.19-3.78h-7.74c-.28,0-.55,0-.84.06Z"/><path class="cls-2" d="M224.16,55.67h11.05l10.16,29.94c.17-.41.26-.61.33-.82q4.59-14.14,9.15-28.28a1,1,0,0,1,1.2-.87c3.11,0,6.22,0,9.32,0h.86c-.66,2-1.29,3.91-1.94,5.82Q258.15,79.79,252,98.11a1,1,0,0,1-1.1.79q-5.53,0-11.06,0a.88.88,0,0,1-1-.73q-7.21-20.83-14.46-41.64C224.32,56.27,224.25,56,224.16,55.67Z"/><path class="cls-2" d="M333.57,87.89c-.16.45-.26.74-.35,1-1,3.09-1.94,6.17-2.87,9.26a.86.86,0,0,1-1,.72c-2.55,0-5.11,0-7.66,0-.45,0-.71-.1-.86-.58q-4.69-14.73-9.4-29.44c0-.12-.06-.25-.1-.43,2.73,0,5.41,0,8.1,0,.22,0,.53.43.62.71,1.2,4.06,2.36,8.13,3.53,12.19l2.07,7.2a1.46,1.46,0,0,0,.38.67l5.38-20.76h8c-.54,2.12-1,4.25-1.65,6.32a4.89,4.89,0,0,0,.21,3.55c1.4,3.35,2.67,6.74,4,10.12.11.28.24.56.45,1l1.46-5.08c1.45-5.08,2.92-10.15,4.35-15.24.16-.56.38-.75,1-.74,2.34,0,4.69,0,7,0,.23,0,.46,0,.77,0l-2.32,7.17c-2.4,7.4-4.8,14.8-7.17,22.21-.24.76-.53,1.08-1.39,1.05-2.29-.08-4.58-.06-6.87,0a1.22,1.22,0,0,1-1.38-.9C336.59,95,335.3,91.93,334,88.9,333.92,88.62,333.78,88.34,333.57,87.89Z"/><path class="cls-2" d="M308.59,92.17c0,1.73,0,3.38,0,5,0,.2-.35.52-.59.57a43.93,43.93,0,0,1-5.87,1.07c-3.44.22-6.89.3-10.33.22-4.06-.09-6.56-2-7.64-6a32.85,32.85,0,0,1-1-6.44,41.07,41.07,0,0,1,.54-10.54c.88-4.66,3.19-7,7.88-7.63a37.22,37.22,0,0,1,11.25.15,6.73,6.73,0,0,1,5.83,5.27A17.66,17.66,0,0,1,309,81.2a6.15,6.15,0,0,1-5.87,5.53,43.7,43.7,0,0,1-4.49.18c-2.45,0-4.9,0-7.35,0a.63.63,0,0,0-.15,0,4.18,4.18,0,0,0,3.69,5.69A65.16,65.16,0,0,0,308.59,92.17Zm-17.7-11c1.36,0,2.52,0,3.67,0,1.58,0,3.16,0,4.73-.09a1.89,1.89,0,0,0,1.88-2.1,15.82,15.82,0,0,0-.16-2.36c-.21-1.44-.81-2.11-2.24-2.21a32.71,32.71,0,0,0-4.8,0A3,3,0,0,0,291.26,77C291,78.36,291,79.7,290.89,81.19Z"/><path class="cls-2" d="M278.33,98.88c-2.52,0-5,0-7.46,0-.14,0-.34-.25-.41-.42a1.78,1.78,0,0,1,0-.63q0-14.14,0-28.28v-1h7.89Z"/><path class="cls-2" d="M407.39,90.15a10.65,10.65,0,0,0,.67,4.58,3,3,0,0,0,3.07,1.52c2.95,0,5.89-.17,8.84-.27l1,0a12.87,12.87,0,0,1,0,1.73c0,.18-.35.41-.58.47a35.62,35.62,0,0,1-8.45.93,13.84,13.84,0,0,1-2-.11c-2.75-.38-4.08-1.54-4.69-4.26A28.59,28.59,0,0,1,405,83.55c.58-3.38,2.18-4.85,5.76-5.21a28.66,28.66,0,0,1,5.91.06c2.86.31,4.11,1.58,4.55,4.4a13.32,13.32,0,0,1,.13,3.46,3.89,3.89,0,0,1-4.07,3.8c-2.92.11-5.84.07-8.77.09Zm4.74-2.75v-.11c1.63,0,3.26.08,4.88,0a1.6,1.6,0,0,0,1.57-1.83,16.76,16.76,0,0,0-.2-2.27,2,2,0,0,0-2-1.93,48,48,0,0,0-5.65,0,3.21,3.21,0,0,0-3.14,3.14c-.11.78-.1,1.57-.18,2.36-.06.58.21.71.73.7C409.44,87.37,410.78,87.39,412.12,87.39Z"/><path class="cls-2" d="M383.28,78.37c1,0,1.88,0,2.76,0,.2,0,.43.4.54.66q2.89,7.29,5.75,14.6c.11.29.24.57.42,1,.18-.43.31-.71.42-1,1.94-4.86,3.88-9.71,5.8-14.58.22-.55.47-.8,1.08-.75s1.45,0,2.3,0L400.7,82.5c-2.09,5.22-4.2,10.44-6.27,15.67a1,1,0,0,1-1.09.73c-2,0-2,0-2.78-1.93l-7-17.75C383.47,79,383.4,78.73,383.28,78.37Z"/><path class="cls-2" d="M365.22,68.63H368v.91q0,11,0,22a14.92,14.92,0,0,0,.17,2.2,2.61,2.61,0,0,0,2.1,2.29l3.37.83v2c-1.77,0-3.54.26-5.25-.32a3.88,3.88,0,0,1-2.52-2.65,12.54,12.54,0,0,1-.65-3.47c-.06-7.8,0-15.59,0-23.39C365.18,68.94,365.2,68.83,365.22,68.63Z"/><path class="cls-2" d="M274.46,65.14c-1,0-2,0-3,0s-1.29-.4-1.3-1.31q0-2.52,0-5c0-1,.38-1.39,1.38-1.4q3,0,5.91,0c.88,0,1.24.36,1.26,1.26q0,2.68,0,5.36c0,.81-.34,1.12-1.18,1.14C276.51,65.15,275.49,65.14,274.46,65.14Z"/><path class="cls-2" d="M379.76,98.85h-2.69V78.43h2.69Z"/><path class="cls-2" d="M360.42,96.86c0,2,0,2-2,2h-.55c-1.09,0-1.28-.21-1.29-1.3,0-.61,0-1.21,0-1.82a.85.85,0,0,1,.95-.92h1.74c1,0,1.18.21,1.19,1.22C360.43,96.33,360.42,96.6,360.42,96.86Z"/><path class="cls-2" d="M380.32,73.91c0,1.93,0,1.93-2,1.93h-.55c-1,0-1.19-.21-1.2-1.2,0-.58,0-1.16,0-1.73a.88.88,0,0,1,1-1h1.58c.89,0,1.13.24,1.15,1.11C380.32,73.34,380.32,73.62,380.32,73.91Z"/><path class="cls-2" d="M79.06,75.57a12.82,12.82,0,0,0-25.45,0A25,25,0,0,1,41.25,49.72a25.42,25.42,0,0,1,50.13-.39C93.49,61.7,86.41,71.74,79.06,75.57ZM59.43,53.72a6.92,6.92,0,0,0,13.83,0,6.92,6.92,0,1,0-13.83,0Z"/></g></g></svg>